<svg width="24" height="25" viewBox="0 0 24 25" fill="none" xmlns="http://www.w3.org/2000/svg">
<g clip-path="url(#clip0_76_141)">
<path d="M18.7699 6.2604C18.6682 5.95314 18.4779 5.68675 18.2255 5.49821C17.973 5.30968 17.6709 5.20836 17.3611 5.20831H6.44833C5.79852 5.20831 5.24296 5.64581 5.03958 6.2604L2.97607 12.5V20.8333C2.97607 21.4062 3.42251 21.875 3.96815 21.875H4.96022C5.22333 21.875 5.47567 21.7652 5.66172 21.5699C5.84777 21.3745 5.95229 21.1096 5.95229 20.8333V19.7916H17.8572V20.8333C17.8572 21.4062 18.3036 21.875 18.8492 21.875H19.8413C20.1044 21.875 20.3568 21.7652 20.5428 21.5699C20.7289 21.3745 20.8334 21.1096 20.8334 20.8333V12.5L18.7699 6.2604ZM6.44833 16.6666C5.62491 16.6666 4.96022 15.9687 4.96022 15.1041C4.96022 14.2396 5.62491 13.5416 6.44833 13.5416C7.27175 13.5416 7.93644 14.2396 7.93644 15.1041C7.93644 15.9687 7.27175 16.6666 6.44833 16.6666ZM17.3611 16.6666C16.5377 16.6666 15.873 15.9687 15.873 15.1041C15.873 14.2396 16.5377 13.5416 17.3611 13.5416C18.1845 13.5416 18.8492 14.2396 18.8492 15.1041C18.8492 15.9687 18.1845 16.6666 17.3611 16.6666ZM4.96022 11.4583L6.44833 6.77081H17.3611L18.8492 11.4583H4.96022Z" fill="black"/>
</g>
<defs>
<clipPath id="clip0_76_141">
<rect width="23.8097" height="25" fill="white"/>
</clipPath>
</defs>
</svg>
