<svg width="17" height="17" viewBox="0 0 17 17" fill="none" xmlns="http://www.w3.org/2000/svg">
<path d="M5.98544 8.66734C5.98544 7.18684 7.18495 5.98634 8.66502 5.98634C10.1451 5.98634 11.3452 7.18684 11.3452 8.66734C11.3452 10.1478 10.1451 11.3483 8.66502 11.3483C7.18495 11.3483 5.98544 10.1478 5.98544 8.66734ZM4.53656 8.66734C4.53656 10.9481 6.38487 12.797 8.66502 12.797C10.9452 12.797 12.7935 10.9481 12.7935 8.66734C12.7935 6.38653 10.9452 4.53769 8.66502 4.53769C6.38487 4.53769 4.53656 6.38653 4.53656 8.66734ZM11.9921 4.37395C11.992 4.56483 12.0485 4.75144 12.1545 4.91019C12.2604 5.06893 12.4111 5.19269 12.5873 5.26581C12.7636 5.33892 12.9576 5.35811 13.1447 5.32095C13.3319 5.28379 13.5039 5.19194 13.6389 5.05702C13.7738 4.92211 13.8658 4.75019 13.9031 4.56299C13.9404 4.3758 13.9214 4.18175 13.8484 4.00537C13.7755 3.829 13.6519 3.67822 13.4932 3.57212C13.3346 3.46601 13.1481 3.40933 12.9573 3.40926H12.9569C12.7011 3.40938 12.4559 3.51104 12.275 3.69192C12.0941 3.8728 11.9923 4.1181 11.9921 4.37395ZM5.41685 15.2136C4.63298 15.1779 4.20692 15.0473 3.92379 14.9369C3.54841 14.7908 3.28059 14.6167 2.99899 14.3354C2.7174 14.0541 2.54309 13.7864 2.3976 13.411C2.28723 13.1279 2.15666 12.7016 2.12102 11.9175C2.08204 11.0697 2.07426 10.8151 2.07426 8.6674C2.07426 6.51971 2.08269 6.26577 2.12102 5.41733C2.15672 4.63324 2.28825 4.20776 2.3976 3.92384C2.54373 3.54836 2.71778 3.28045 2.99899 2.99878C3.2802 2.7171 3.54777 2.54274 3.92379 2.39721C4.20679 2.2868 4.63298 2.1562 5.41685 2.12055C6.26433 2.08156 6.51891 2.07378 8.66502 2.07378C10.8111 2.07378 11.066 2.08221 11.9141 2.12055C12.698 2.15626 13.1234 2.28783 13.4072 2.39721C13.7826 2.54274 14.0504 2.71749 14.332 2.99878C14.6136 3.28006 14.7873 3.54836 14.9334 3.92384C15.0438 4.20693 15.1743 4.63324 15.21 5.41733C15.249 6.26577 15.2567 6.51971 15.2567 8.6674C15.2567 10.8151 15.249 11.069 15.21 11.9175C15.1743 12.7016 15.0431 13.1277 14.9334 13.411C14.7873 13.7864 14.6132 14.0543 14.332 14.3354C14.0508 14.6164 13.7826 14.7908 13.4072 14.9369C13.1242 15.0474 12.698 15.178 11.9141 15.2136C11.0667 15.2526 10.8121 15.2604 8.66502 15.2604C6.51795 15.2604 6.26407 15.2526 5.41685 15.2136ZM5.35028 0.673704C4.49437 0.712694 3.90951 0.848448 3.39874 1.04725C2.86977 1.25256 2.42198 1.52799 1.9745 1.97489C1.52703 2.42179 1.25238 2.87042 1.04713 3.39954C0.848384 3.91078 0.712668 4.49549 0.67369 5.35164C0.634069 6.20915 0.625 6.48329 0.625 8.66734C0.625 10.8514 0.634069 11.1255 0.67369 11.983C0.712668 12.8392 0.848384 13.4239 1.04713 13.9351C1.25238 14.4639 1.52709 14.9131 1.9745 15.3598C2.42191 15.8065 2.86977 16.0815 3.39874 16.2874C3.91047 16.4862 4.49437 16.622 5.35028 16.661C6.20799 16.7 6.48161 16.7097 8.66502 16.7097C10.8484 16.7097 11.1225 16.7006 11.9798 16.661C12.8357 16.622 13.4202 16.4862 13.9313 16.2874C14.4599 16.0815 14.9081 15.8067 15.3555 15.3598C15.803 14.9129 16.0771 14.4639 16.2829 13.9351C16.4816 13.4239 16.618 12.8392 16.6563 11.983C16.6953 11.1249 16.7044 10.8514 16.7044 8.66734C16.7044 6.48329 16.6953 6.20915 16.6563 5.35164C16.6174 4.49542 16.4816 3.91045 16.2829 3.39954C16.0771 2.87074 15.8023 2.42249 15.3555 1.97489C14.9088 1.52729 14.4599 1.25256 13.9319 1.04725C13.4202 0.848448 12.8357 0.71205 11.9804 0.673704C11.1231 0.634715 10.8491 0.625 8.66566 0.625C6.48225 0.625 6.20799 0.634072 5.35028 0.673704Z" fill="white"/>
</svg>
